<?xml version="1.0" encoding="UTF-8" standalone="no"?>
<!-- Generator: Adobe Illustrator 19.0.0, SVG Export Plug-In . SVG Version: 6.00 Build 0)  -->

<svg
   xmlns:dc="http://purl.org/dc/elements/1.1/"
   xmlns:cc="http://creativecommons.org/ns#"
   xmlns:rdf="http://www.w3.org/1999/02/22-rdf-syntax-ns#"
   xmlns:svg="http://www.w3.org/2000/svg"
   xmlns="http://www.w3.org/2000/svg"
   xmlns:sodipodi="http://sodipodi.sourceforge.net/DTD/sodipodi-0.dtd"
   xmlns:inkscape="http://www.inkscape.org/namespaces/inkscape"
   version="1.1"
   id="Capa_1"
   x="0px"
   y="0px"
   viewBox="0 0 480.001 480.001"
   style="enable-background:new 0 0 480.001 480.001;"
   xml:space="preserve"
   sodipodi:docname="foggy.svg"
   inkscape:version="0.92.3 (2405546, 2018-03-11)"><metadata
   id="metadata4013"><rdf:RDF><cc:Work
       rdf:about=""><dc:format>image/svg+xml</dc:format><dc:type
         rdf:resource="http://purl.org/dc/dcmitype/StillImage" /><dc:title></dc:title></cc:Work></rdf:RDF></metadata><defs
   id="defs4011" /><sodipodi:namedview
   pagecolor="#ffffff"
   bordercolor="#666666"
   borderopacity="1"
   objecttolerance="10"
   gridtolerance="10"
   guidetolerance="10"
   inkscape:pageopacity="0"
   inkscape:pageshadow="2"
   inkscape:window-width="1366"
   inkscape:window-height="705"
   id="namedview4009"
   showgrid="false"
   inkscape:zoom="1.120831"
   inkscape:cx="240.0005"
   inkscape:cy="240.0005"
   inkscape:window-x="-8"
   inkscape:window-y="-8"
   inkscape:window-maximized="1"
   inkscape:current-layer="Capa_1" />
<g
   id="g3972"
   transform="matrix(0.52698273,0,0,0.5315984,113.52415,112.41659)">
	<path
   style="fill:#6e9ae0"
   d="m 378.637,336 c -15.341,-0.051 -29.931,-6.643 -40.109,-18.121 -13.186,-16.152 -36.969,-18.557 -53.121,-5.371 -1.966,1.605 -3.766,3.405 -5.371,5.371 -19.488,22.141 -53.234,24.292 -75.375,4.804 -1.702,-1.498 -3.307,-3.103 -4.804,-4.804 -13.177,-16.148 -36.949,-18.557 -53.097,-5.38 -1.97,1.608 -3.772,3.41 -5.38,5.38 -19.476,22.136 -53.208,24.292 -75.344,4.816 -1.706,-1.501 -3.315,-3.11 -4.816,-4.816 C 53.993,309.182 43.307,304.106 32,304 v -16 c 15.331,0.054 29.911,6.646 40.078,18.121 13.161,16.14 36.914,18.556 53.054,5.395 1.976,-1.611 3.784,-3.419 5.395,-5.395 19.488,-22.141 53.234,-24.292 75.375,-4.804 1.702,1.498 3.307,3.103 4.804,4.804 13.177,16.148 36.949,18.557 53.097,5.38 1.97,-1.608 3.772,-3.41 5.38,-5.38 19.497,-22.145 53.255,-24.292 75.401,-4.795 1.698,1.495 3.3,3.096 4.795,4.795 13.199,16.159 36.999,18.558 53.157,5.358 1.961,-1.602 3.756,-3.397 5.358,-5.358 C 418.072,294.644 432.661,288.052 448,288 v 16 c -11.317,0.104 -22.015,5.18 -29.254,13.879 -10.179,11.476 -24.769,18.068 -40.109,18.121 z"
   id="path3966"
   inkscape:connector-curvature="0" />
	<path
   style="fill:#6e9ae0"
   d="m 378.637,408 c -15.341,-0.051 -29.931,-6.643 -40.109,-18.121 -13.186,-16.152 -36.969,-18.557 -53.121,-5.371 -1.966,1.605 -3.766,3.405 -5.371,5.371 -19.488,22.141 -53.234,24.292 -75.375,4.804 -1.702,-1.498 -3.307,-3.103 -4.804,-4.804 -13.177,-16.148 -36.949,-18.557 -53.097,-5.38 -1.97,1.608 -3.772,3.41 -5.38,5.38 -19.476,22.136 -53.208,24.292 -75.344,4.816 -1.706,-1.501 -3.315,-3.11 -4.816,-4.816 C 53.993,381.182 43.307,376.106 32,376 v -16 c 15.331,0.054 29.911,6.646 40.078,18.121 13.161,16.14 36.914,18.556 53.054,5.395 1.976,-1.611 3.784,-3.419 5.395,-5.395 19.488,-22.141 53.234,-24.292 75.375,-4.804 1.702,1.498 3.307,3.103 4.804,4.804 13.177,16.148 36.949,18.557 53.097,5.38 1.97,-1.608 3.772,-3.41 5.38,-5.38 19.497,-22.145 53.255,-24.292 75.401,-4.795 1.698,1.495 3.3,3.096 4.795,4.795 13.199,16.159 36.999,18.558 53.157,5.358 1.961,-1.602 3.756,-3.397 5.358,-5.358 C 418.072,366.644 432.661,360.052 448,360 v 16 c -11.317,0.104 -22.015,5.18 -29.254,13.879 -10.179,11.476 -24.769,18.068 -40.109,18.121 z"
   id="path3968"
   inkscape:connector-curvature="0" />
	<path
   style="fill:#6e9ae0"
   d="m 378.637,480 c -15.341,-0.051 -29.931,-6.643 -40.109,-18.121 -13.186,-16.152 -36.969,-18.557 -53.121,-5.371 -1.966,1.605 -3.766,3.405 -5.371,5.371 -19.488,22.141 -53.234,24.292 -75.375,4.804 -1.702,-1.498 -3.307,-3.103 -4.804,-4.804 -13.177,-16.148 -36.949,-18.557 -53.097,-5.38 -1.97,1.608 -3.772,3.41 -5.38,5.38 -19.476,22.136 -53.208,24.292 -75.344,4.816 -1.706,-1.501 -3.315,-3.11 -4.816,-4.816 C 53.993,453.182 43.307,448.106 32,448 v -16 c 15.331,0.054 29.911,6.646 40.078,18.121 13.161,16.14 36.914,18.556 53.054,5.395 1.976,-1.611 3.784,-3.419 5.395,-5.395 19.488,-22.141 53.234,-24.292 75.375,-4.804 1.702,1.498 3.307,3.103 4.804,4.804 13.177,16.148 36.949,18.557 53.097,5.38 1.97,-1.608 3.772,-3.41 5.38,-5.38 19.497,-22.145 53.255,-24.292 75.401,-4.795 1.698,1.495 3.3,3.096 4.795,4.795 13.199,16.159 36.999,18.558 53.157,5.358 1.961,-1.602 3.756,-3.397 5.358,-5.358 C 418.072,438.644 432.661,432.052 448,432 v 16 c -11.317,0.104 -22.015,5.18 -29.254,13.879 -10.179,11.476 -24.769,18.068 -40.109,18.121 z"
   id="path3970"
   inkscape:connector-curvature="0" />
</g>
<path
   style="fill:#dcdcda;stroke-width:0.52928555"
   d="m 315.88551,150.69168 c -5.77995,-22.07357 -30.84904,-38.27509 -59.02206,-38.27509 -27.83734,0 -48.66949,16.59598 -54.8062,38.27509 -17.10639,0.23071 -33.22627,8.21107 -37.94276,21.26393 -1.29111,-0.0973 -2.8963,0 -4.21586,0 -23.75744,0 -42.15862,17.39497 -42.15862,38.27509 0,20.88012 18.40118,38.27508 42.15862,38.27508 h 147.55516 c 30.20296,-1.04034 54.80621,-24.56144 54.80621,-51.03344 0,-24.19783 -19.8583,-42.69639 -46.37449,-46.78066 z"
   id="path3974"
   inkscape:connector-curvature="0" />
<path
   style="fill:#abaea7;stroke-width:0.52928555"
   d="m 359.87381,183.51841 c -2.627,24.86126 -23.41911,43.72078 -48.20416,43.72344 H 143.03517 c -8.25096,0.006 -16.36597,-2.12268 -23.56824,-6.18409 6.19363,16.99201 22.49478,28.05883 40.4317,27.44802 h 147.55516 c 30.20296,-1.04034 54.80621,-24.56144 54.80621,-51.03344 -0.002,-4.75462 -0.80893,-9.47362 -2.38619,-13.95393 z"
   id="path3976"
   inkscape:connector-curvature="0" />
<g
   id="g3978">
</g>
<g
   id="g3980">
</g>
<g
   id="g3982">
</g>
<g
   id="g3984">
</g>
<g
   id="g3986">
</g>
<g
   id="g3988">
</g>
<g
   id="g3990">
</g>
<g
   id="g3992">
</g>
<g
   id="g3994">
</g>
<g
   id="g3996">
</g>
<g
   id="g3998">
</g>
<g
   id="g4000">
</g>
<g
   id="g4002">
</g>
<g
   id="g4004">
</g>
<g
   id="g4006">
</g>
</svg>