<?xml version="1.0" encoding="iso-8859-1"?>
<!-- Generator: Adobe Illustrator 19.0.0, SVG Export Plug-In . SVG Version: 6.00 Build 0)  -->
<svg version="1.1" id="Capa_1" xmlns="http://www.w3.org/2000/svg" xmlns:xlink="http://www.w3.org/1999/xlink" x="0px" y="0px"
	 viewBox="0 0 368	368" style="enable-background:new 0 0 368 368;" >
<g>
	<path style="fill:#007AFF;" d="M360,96c-27.272,0-40.648-7.296-54.808-15.016C289.88,72.632,274.048,64,242.64,64
		c-31.352,0-47.168,8.624-62.472,16.968C166,88.696,152.608,96,125.28,96C98,96,84.632,88.704,70.472,80.976
		C55.176,72.632,39.36,64,8,64c-4.424,0-8,3.584-8,8s3.576,8,8,8c27.28,0,40.648,7.296,54.808,15.024
		C78.104,103.368,93.92,112,125.28,112c31.408,0,47.24-8.632,62.552-16.984C201.992,87.296,215.368,80,242.64,80
		c27.328,0,40.72,7.304,54.888,15.032C312.832,103.376,328.648,112,360,112c4.424,0,8-3.584,8-8S364.424,96,360,96z"/>
	<path style="fill:#007AFF;" d="M360,160c-27.272,0-40.648-7.296-54.808-15.016C289.88,136.632,274.048,128,242.64,128
		c-31.352,0-47.168,8.624-62.472,16.968C166,152.696,152.608,160,125.28,160c-27.28,0-40.648-7.296-54.808-15.024
		C55.176,136.632,39.36,128,8,128c-4.424,0-8,3.584-8,8s3.576,8,8,8c27.28,0,40.648,7.296,54.808,15.024
		C78.104,167.368,93.92,176,125.28,176c31.408,0,47.24-8.632,62.552-16.984c14.16-7.72,27.536-15.016,54.808-15.016
		c27.328,0,40.72,7.304,54.888,15.032C312.832,167.376,328.648,176,360,176c4.424,0,8-3.584,8-8S364.424,160,360,160z"/>
	<path style="fill:#007AFF;" d="M360,288c-27.272,0-40.648-7.296-54.808-15.016C289.88,264.632,274.048,256,242.64,256
		c-31.352,0-47.168,8.624-62.472,16.968C166,280.696,152.608,288,125.28,288c-27.28,0-40.648-7.296-54.808-15.024
		C55.176,264.632,39.36,256,8,256c-4.424,0-8,3.584-8,8s3.576,8,8,8c27.28,0,40.648,7.296,54.808,15.024
		C78.104,295.368,93.92,304,125.28,304c31.408,0,47.24-8.632,62.552-16.984c14.16-7.72,27.536-15.016,54.808-15.016
		c27.328,0,40.72,7.304,54.888,15.032C312.832,295.376,328.648,304,360,304c4.424,0,8-3.584,8-8S364.424,288,360,288z"/>
	<path style="fill:#007AFF;" d="M360,224c-27.272,0-40.648-7.296-54.808-15.016C289.88,200.632,274.048,192,242.64,192
		c-31.352,0-47.168,8.624-62.472,16.968C166,216.696,152.608,224,125.28,224c-27.28,0-40.648-7.296-54.808-15.024
		C55.176,200.632,39.36,192,8,192c-4.424,0-8,3.584-8,8s3.576,8,8,8c27.28,0,40.648,7.296,54.808,15.024
		C78.104,231.368,93.92,240,125.28,240c31.408,0,47.24-8.632,62.552-16.984c14.16-7.72,27.536-15.016,54.808-15.016
		c27.328,0,40.72,7.304,54.888,15.032C312.832,231.376,328.648,240,360,240c4.424,0,8-3.584,8-8S364.424,224,360,224z"/>
</g>
<g>
</g>
<g>
</g>
<g>
</g>
<g>
</g>
<g>
</g>
<g>
</g>
<g>
</g>
<g>
</g>
<g>
</g>
<g>
</g>
<g>
</g>
<g>
</g>
<g>
</g>
<g>
</g>
<g>
</g>
</svg>
